# xmcd CD database file
#
# Track frame offsets:
#	150
#	78262
#	106785
#	127562
#	171622
#	234507
#
# Disc length: 3506 seconds
#
# Revision: 1
# Processed by: cddbd v1.5.2PL0 Copyright (c) Steve Scherf et al.
# Submitted via: CDex 1.51
#
DISCID=3c0db006
DTITLE=Per Tjernberg - Inside Information
DYEAR=2006
DGENRE=Jazz
TTITLE0=Inside information
TTITLE1=Troutfishing in America
TTITLE2=Öringsfiske i Amerika
TTITLE3=Joni
TTITLE4=Deya view - Deja vu
TTITLE5=Gröndal
EXTD=YEAR: 2006
EXTT0=
EXTT1=
EXTT2=
EXTT3=
EXTT4=
EXTT5=
PLAYORDER=
